<?xml version="1.0" standalone="no"?>
<!DOCTYPE svg PUBLIC "-//W3C//DTD SVG 20010904//EN"
 "http://www.w3.org/TR/2001/REC-SVG-20010904/DTD/svg10.dtd">
<svg version="1.0" xmlns="http://www.w3.org/2000/svg"
 width="128.000000pt" height="128.000000pt" viewBox="0 0 128.000000 128.000000"
 preserveAspectRatio="xMidYMid meet">
<metadata>
Created by potrace 1.14, written by Peter Selinger 2001-2017
</metadata>
<g transform="translate(0.000000,128.000000) scale(0.100000,-0.100000)"
fill="#000000" stroke="none">
<path d="M480 1100 c0 -13 -7 -20 -20 -20 -20 0 -20 -7 -20 -400 l0 -400 -140
0 c-133 0 -140 -1 -140 -20 0 -13 -7 -20 -20 -20 -17 0 -20 -7 -20 -40 0 -33
3 -40 20 -40 13 0 20 -7 20 -20 0 -20 7 -20 480 -20 473 0 480 0 480 20 0 13
7 20 20 20 17 0 20 7 20 40 0 33 -3 40 -20 40 -13 0 -20 7 -20 20 0 19 -7 20
-180 20 l-180 0 0 140 0 140 120 0 c113 0 120 1 120 20 0 13 7 20 20 20 19 0
20 7 20 240 0 233 -1 240 -20 240 -13 0 -20 7 -20 20 0 19 -7 20 -260 20 -253
0 -260 -1 -260 -20z m320 -40 c0 -17 7 -20 40 -20 33 0 40 -3 40 -20 0 -17 7
-20 40 -20 33 0 40 -3 40 -20 0 -13 7 -20 20 -20 13 0 20 -7 20 -20 0 -17 -7
-20 -40 -20 -33 0 -40 3 -40 20 0 13 -7 20 -20 20 -19 0 -20 -7 -20 -120 0
-113 1 -120 20 -120 17 0 20 7 20 40 0 33 3 40 20 40 13 0 20 -7 20 -20 0 -13
7 -20 20 -20 18 0 20 -7 20 -60 l0 -60 -40 0 c-33 0 -40 3 -40 20 0 13 -7 20
-20 20 -13 0 -20 7 -20 20 0 19 -7 20 -120 20 -113 0 -120 -1 -120 -20 0 -13
7 -20 20 -20 13 0 20 -7 20 -20 0 -13 7 -20 20 -20 17 0 20 -7 20 -40 l0 -40
-40 0 c-33 0 -40 3 -40 20 0 13 -7 20 -20 20 -13 0 -20 7 -20 20 0 13 -7 20
-20 20 -13 0 -20 7 -20 20 0 17 -7 20 -40 20 l-40 0 0 60 c0 53 2 60 20 60 13
0 20 -7 20 -20 0 -17 7 -20 40 -20 33 0 40 -3 40 -20 0 -13 7 -20 20 -20 19 0
20 7 20 120 l0 120 120 0 c113 0 120 1 120 20 0 18 -7 20 -60 20 -53 0 -60 2
-60 20 0 13 -7 20 -20 20 -13 0 -20 7 -20 20 0 17 7 20 40 20 33 0 40 -3 40
-20z m-240 -80 c0 -13 7 -20 20 -20 17 0 20 -7 20 -40 l0 -40 -40 0 c-33 0
-40 3 -40 20 0 13 -7 20 -20 20 -17 0 -20 7 -20 40 l0 40 40 0 c33 0 40 -3 40
-20z m-40 -440 c0 -13 7 -20 20 -20 13 0 20 -7 20 -20 0 -13 7 -20 20 -20 13
0 20 -7 20 -20 0 -18 7 -20 60 -20 l60 0 0 -60 0 -60 -40 0 c-33 0 -40 3 -40
20 0 17 -7 20 -40 20 -33 0 -40 3 -40 20 0 17 -7 20 -40 20 l-40 0 0 80 c0 73
2 80 20 80 13 0 20 -7 20 -20z m-200 -320 c0 -13 7 -20 20 -20 13 0 20 -7 20
-20 0 -19 -7 -20 -100 -20 l-100 0 0 40 0 40 80 0 c73 0 80 -2 80 -20z m280 0
c0 -13 7 -20 20 -20 13 0 20 -7 20 -20 0 -19 -7 -20 -100 -20 -93 0 -100 1
-100 20 0 13 -7 20 -20 20 -13 0 -20 7 -20 20 0 19 7 20 100 20 93 0 100 -1
100 -20z"/>
</g>
</svg>
